<?xml version="1.0" encoding="UTF-8" ?>
<svg version="1.1" width="32" height="32" xmlns="http://www.w3.org/2000/svg" shape-rendering="crispEdges">
<rect x="11" y="0" width="1" height="1" fill="#50B7E1" />
<rect x="3" y="1" width="1" height="3" fill="#50B7E1" />
<rect x="10" y="1" width="1" height="1" fill="#50B7E1" />
<rect x="11" y="1" width="2" height="1" fill="#57C1ED" />
<rect x="13" y="1" width="2" height="1" fill="#50B7E1" />
<rect x="15" y="1" width="2" height="1" fill="#33B2E6" />
<rect x="21" y="1" width="1" height="1" fill="#63D2FF" />
<rect x="24" y="1" width="1" height="1" fill="#63D2FF" />
<rect x="28" y="1" width="1" height="1" fill="#50B7E1" />
<rect x="29" y="1" width="1" height="1" fill="#64C8F2" />
<rect x="30" y="1" width="1" height="1" fill="#63D2FF" />
<rect x="2" y="2" width="1" height="1" fill="#50B7E1" />
<rect x="4" y="2" width="1" height="1" fill="#50B7E1" />
<rect x="9" y="2" width="1" height="1" fill="#50B7E1" />
<rect x="10" y="2" width="2" height="1" fill="#57C1ED" />
<rect x="12" y="2" width="2" height="1" fill="#50B7E1" />
<rect x="14" y="2" width="1" height="1" fill="#33B2E6" />
<rect x="15" y="2" width="1" height="1" fill="#1C9DD1" />
<rect x="20" y="2" width="1" height="1" fill="#64C8F2" />
<rect x="22" y="2" width="1" height="2" fill="#50B7E1" />
<rect x="24" y="2" width="1" height="1" fill="#50B7E1" />
<rect x="28" y="2" width="1" height="1" fill="#33B2E6" />
<rect x="30" y="2" width="1" height="1" fill="#64C8F2" />
<rect x="4" y="3" width="1" height="2" fill="#57C1ED" />
<rect x="7" y="3" width="1" height="1" fill="#50B7E1" />
<rect x="8" y="3" width="1" height="1" fill="#64C8F2" />
<rect x="9" y="3" width="2" height="1" fill="#57C1ED" />
<rect x="11" y="3" width="1" height="2" fill="#50B7E1" />
<rect x="20" y="3" width="1" height="2" fill="#1C9DD1" />
<rect x="21" y="3" width="1" height="1" fill="#33B2E6" />
<rect x="24" y="3" width="1" height="1" fill="#33B2E6" />
<rect x="28" y="3" width="1" height="2" fill="#1C9DD1" />
<rect x="30" y="3" width="1" height="1" fill="#50B7E1" />
<rect x="2" y="4" width="1" height="1" fill="#50B7E1" />
<rect x="3" y="4" width="1" height="1" fill="#57C1ED" />
<rect x="5" y="4" width="1" height="1" fill="#57C1ED" />
<rect x="6" y="4" width="2" height="1" fill="#64C8F2" />
<rect x="9" y="4" width="1" height="1" fill="#64C8F2" />
<rect x="10" y="4" width="1" height="2" fill="#50B7E1" />
<rect x="22" y="4" width="1" height="1" fill="#33B2E6" />
<rect x="24" y="4" width="2" height="1" fill="#1C9DD1" />
<rect x="26" y="4" width="1" height="1" fill="#33B2E6" />
<rect x="29" y="4" width="1" height="1" fill="#1C9DD1" />
<rect x="30" y="4" width="1" height="1" fill="#33B2E6" />
<rect x="0" y="5" width="3" height="1" fill="#33B2E6" />
<rect x="3" y="5" width="3" height="1" fill="#50B7E1" />
<rect x="11" y="5" width="1" height="1" fill="#33B2E6" />
<rect x="1" y="6" width="2" height="1" fill="#1C9DD1" />
<rect x="4" y="6" width="2" height="1" fill="#33B2E6" />
<rect x="6" y="6" width="1" height="1" fill="#50B7E1" />
<rect x="8" y="6" width="1" height="4" fill="#64C8F2" />
<rect x="10" y="6" width="1" height="1" fill="#33B2E6" />
<rect x="14" y="6" width="3" height="1" fill="#50B7E1" />
<rect x="20" y="6" width="1" height="1" fill="#64C8F2" />
<rect x="22" y="6" width="1" height="1" fill="#63D2FF" />
<rect x="24" y="6" width="1" height="1" fill="#50B7E1" />
<rect x="25" y="6" width="1" height="1" fill="#64C8F2" />
<rect x="26" y="6" width="1" height="1" fill="#63D2FF" />
<rect x="28" y="6" width="1" height="1" fill="#64C8F2" />
<rect x="29" y="6" width="1" height="1" fill="#63D2FF" />
<rect x="6" y="7" width="2" height="1" fill="#33B2E6" />
<rect x="12" y="7" width="2" height="1" fill="#50B7E1" />
<rect x="14" y="7" width="2" height="1" fill="#33B2E6" />
<rect x="16" y="7" width="3" height="1" fill="#1C9DD1" />
<rect x="20" y="7" width="2" height="1" fill="#33B2E6" />
<rect x="25" y="7" width="1" height="1" fill="#50B7E1" />
<rect x="28" y="7" width="1" height="1" fill="#33B2E6" />
<rect x="30" y="7" width="1" height="1" fill="#50B7E1" />
<rect x="9" y="8" width="1" height="2" fill="#64C8F2" />
<rect x="10" y="8" width="2" height="1" fill="#50B7E1" />
<rect x="12" y="8" width="2" height="1" fill="#33B2E6" />
<rect x="20" y="8" width="1" height="2" fill="#1C9DD1" />
<rect x="22" y="8" width="1" height="1" fill="#50B7E1" />
<rect x="25" y="8" width="1" height="1" fill="#33B2E6" />
<rect x="28" y="8" width="1" height="2" fill="#1C9DD1" />
<rect x="29" y="8" width="1" height="1" fill="#33B2E6" />
<rect x="6" y="9" width="2" height="2" fill="#64C8F2" />
<rect x="10" y="9" width="2" height="1" fill="#33B2E6" />
<rect x="22" y="9" width="1" height="1" fill="#33B2E6" />
<rect x="24" y="9" width="2" height="1" fill="#1C9DD1" />
<rect x="26" y="9" width="1" height="1" fill="#33B2E6" />
<rect x="30" y="9" width="1" height="1" fill="#33B2E6" />
<rect x="4" y="10" width="2" height="1" fill="#50B7E1" />
<rect x="8" y="10" width="1" height="1" fill="#57C1ED" />
<rect x="3" y="11" width="1" height="1" fill="#50B7E1" />
<rect x="4" y="11" width="2" height="1" fill="#33B2E6" />
<rect x="6" y="11" width="1" height="3" fill="#57C1ED" />
<rect x="7" y="11" width="1" height="1" fill="#64C8F2" />
<rect x="11" y="11" width="3" height="1" fill="#57C1ED" />
<rect x="14" y="11" width="1" height="1" fill="#50B7E1" />
<rect x="15" y="11" width="2" height="1" fill="#33B2E6" />
<rect x="17" y="11" width="1" height="1" fill="#1C9DD1" />
<rect x="22" y="11" width="1" height="1" fill="#33B2E6" />
<rect x="23" y="11" width="1" height="1" fill="#64C8F2" />
<rect x="24" y="11" width="1" height="1" fill="#63D2FF" />
<rect x="27" y="11" width="1" height="1" fill="#63D2FF" />
<rect x="2" y="12" width="3" height="1" fill="#33B2E6" />
<rect x="7" y="12" width="4" height="1" fill="#57C1ED" />
<rect x="11" y="12" width="3" height="1" fill="#50B7E1" />
<rect x="16" y="12" width="2" height="1" fill="#33B2E6" />
<rect x="18" y="12" width="1" height="5" fill="#1C9DD1" />
<rect x="23" y="12" width="1" height="1" fill="#33B2E6" />
<rect x="26" y="12" width="1" height="1" fill="#33B2E6" />
<rect x="28" y="12" width="1" height="1" fill="#64C8F2" />
<rect x="1" y="13" width="2" height="1" fill="#1C9DD1" />
<rect x="5" y="13" width="1" height="1" fill="#50B7E1" />
<rect x="7" y="13" width="3" height="1" fill="#57C1ED" />
<rect x="17" y="13" width="1" height="4" fill="#33B2E6" />
<rect x="23" y="13" width="1" height="2" fill="#1C9DD1" />
<rect x="26" y="13" width="2" height="1" fill="#1C9DD1" />
<rect x="28" y="13" width="1" height="1" fill="#50B7E1" />
<rect x="4" y="14" width="1" height="1" fill="#50B7E1" />
<rect x="5" y="14" width="1" height="1" fill="#33B2E6" />
<rect x="6" y="14" width="1" height="1" fill="#50B7E1" />
<rect x="7" y="14" width="1" height="1" fill="#57C1ED" />
<rect x="22" y="14" width="1" height="1" fill="#1C9DD1" />
<rect x="24" y="14" width="1" height="1" fill="#1C9DD1" />
<rect x="26" y="14" width="1" height="1" fill="#1C9DD1" />
<rect x="28" y="14" width="1" height="1" fill="#33B2E6" />
<rect x="3" y="15" width="2" height="1" fill="#33B2E6" />
<rect x="5" y="15" width="2" height="1" fill="#1C9DD1" />
<rect x="7" y="15" width="2" height="1" fill="#50B7E1" />
<rect x="2" y="16" width="2" height="1" fill="#33B2E6" />
<rect x="4" y="16" width="1" height="1" fill="#1C9DD1" />
<rect x="7" y="16" width="1" height="1" fill="#33B2E6" />
<rect x="8" y="16" width="2" height="1" fill="#50B7E1" />
<rect x="16" y="16" width="1" height="2" fill="#33B2E6" />
<rect x="20" y="16" width="2" height="1" fill="#1C9DD1" />
<rect x="2" y="17" width="1" height="1" fill="#33B2E6" />
<rect x="3" y="17" width="1" height="1" fill="#1C9DD1" />
<rect x="8" y="17" width="3" height="1" fill="#33B2E6" />
<rect x="15" y="17" width="1" height="1" fill="#33B2E6" />
<rect x="17" y="17" width="1" height="1" fill="#1C9DD1" />
<rect x="21" y="17" width="2" height="1" fill="#1C9DD1" />
<rect x="2" y="18" width="1" height="1" fill="#1C9DD1" />
<rect x="9" y="18" width="3" height="1" fill="#1C9DD1" />
<rect x="12" y="18" width="3" height="1" fill="#33B2E6" />
<rect x="15" y="18" width="2" height="1" fill="#1C9DD1" />
<rect x="21" y="18" width="1" height="1" fill="#1C9DD1" />
<rect x="22" y="18" width="1" height="4" fill="#33B2E6" />
<rect x="23" y="18" width="1" height="1" fill="#1C9DD1" />
<rect x="25" y="18" width="3" height="1" fill="#1C9DD1" />
<rect x="11" y="19" width="4" height="1" fill="#1C9DD1" />
<rect x="17" y="19" width="3" height="1" fill="#1C9DD1" />
<rect x="23" y="19" width="1" height="2" fill="#33B2E6" />
<rect x="24" y="19" width="1" height="1" fill="#1C9DD1" />
<rect x="25" y="19" width="1" height="1" fill="#33B2E6" />
<rect x="26" y="19" width="1" height="1" fill="#50B7E1" />
<rect x="2" y="20" width="1" height="2" fill="#50B7E1" />
<rect x="3" y="20" width="1" height="1" fill="#33B2E6" />
<rect x="4" y="20" width="1" height="1" fill="#1C9DD1" />
<rect x="9" y="20" width="1" height="1" fill="#1C9DD1" />
<rect x="18" y="20" width="3" height="1" fill="#1C9DD1" />
<rect x="21" y="20" width="1" height="2" fill="#33B2E6" />
<rect x="24" y="20" width="1" height="3" fill="#50B7E1" />
<rect x="25" y="20" width="1" height="1" fill="#57C1ED" />
<rect x="5" y="21" width="1" height="1" fill="#1C9DD1" />
<rect x="9" y="21" width="1" height="2" fill="#33B2E6" />
<rect x="20" y="21" width="1" height="1" fill="#33B2E6" />
<rect x="23" y="21" width="1" height="3" fill="#50B7E1" />
<rect x="2" y="22" width="1" height="2" fill="#64C8F2" />
<rect x="3" y="22" width="1" height="1" fill="#50B7E1" />
<rect x="4" y="22" width="1" height="1" fill="#33B2E6" />
<rect x="21" y="22" width="2" height="1" fill="#50B7E1" />
<rect x="25" y="22" width="1" height="2" fill="#57C1ED" />
<rect x="5" y="23" width="1" height="1" fill="#33B2E6" />
<rect x="9" y="23" width="1" height="1" fill="#50B7E1" />
<rect x="20" y="23" width="2" height="1" fill="#50B7E1" />
<rect x="24" y="23" width="1" height="5" fill="#57C1ED" />
<rect x="26" y="23" width="1" height="2" fill="#57C1ED" />
<rect x="2" y="24" width="1" height="1" fill="#63D2FF" />
<rect x="3" y="24" width="2" height="1" fill="#50B7E1" />
<rect x="9" y="24" width="1" height="1" fill="#63D2FF" />
<rect x="10" y="24" width="2" height="1" fill="#50B7E1" />
<rect x="12" y="24" width="1" height="1" fill="#33B2E6" />
<rect x="18" y="24" width="1" height="1" fill="#1C9DD1" />
<rect x="19" y="24" width="1" height="1" fill="#50B7E1" />
<rect x="20" y="24" width="1" height="1" fill="#57C1ED" />
<rect x="27" y="24" width="1" height="2" fill="#57C1ED" />
<rect x="17" y="25" width="1" height="1" fill="#1C9DD1" />
<rect x="18" y="25" width="1" height="1" fill="#33B2E6" />
<rect x="19" y="25" width="1" height="1" fill="#57C1ED" />
<rect x="28" y="25" width="1" height="2" fill="#64C8F2" />
<rect x="2" y="26" width="2" height="1" fill="#33B2E6" />
<rect x="4" y="26" width="1" height="1" fill="#1C9DD1" />
<rect x="10" y="26" width="1" height="1" fill="#33B2E6" />
<rect x="11" y="26" width="2" height="1" fill="#1C9DD1" />
<rect x="15" y="26" width="1" height="1" fill="#57C1ED" />
<rect x="16" y="26" width="1" height="1" fill="#1C9DD1" />
<rect x="17" y="26" width="1" height="1" fill="#33B2E6" />
<rect x="29" y="26" width="1" height="1" fill="#64C8F2" />
<rect x="2" y="27" width="1" height="2" fill="#50B7E1" />
<rect x="5" y="27" width="1" height="1" fill="#1C9DD1" />
<rect x="9" y="27" width="1" height="1" fill="#33B2E6" />
<rect x="21" y="27" width="1" height="2" fill="#1C9DD1" />
<rect x="23" y="27" width="1" height="1" fill="#1C9DD1" />
<rect x="29" y="27" width="1" height="1" fill="#57C1ED" />
<rect x="30" y="27" width="1" height="1" fill="#64C8F2" />
<rect x="5" y="28" width="1" height="2" fill="#33B2E6" />
<rect x="9" y="28" width="1" height="1" fill="#50B7E1" />
<rect x="11" y="28" width="1" height="1" fill="#50B7E1" />
<rect x="12" y="28" width="1" height="2" fill="#33B2E6" />
<rect x="22" y="28" width="1" height="1" fill="#33B2E6" />
<rect x="23" y="28" width="1" height="1" fill="#50B7E1" />
<rect x="24" y="28" width="1" height="1" fill="#64C8F2" />
<rect x="2" y="29" width="1" height="1" fill="#64C8F2" />
<rect x="9" y="29" width="1" height="1" fill="#64C8F2" />
<rect x="22" y="29" width="1" height="1" fill="#50B7E1" />
<rect x="23" y="29" width="1" height="1" fill="#64C8F2" />
<rect x="3" y="30" width="1" height="1" fill="#64C8F2" />
<rect x="4" y="30" width="2" height="1" fill="#50B7E1" />
<rect x="9" y="30" width="2" height="1" fill="#63D2FF" />
<rect x="11" y="30" width="1" height="1" fill="#64C8F2" />
</svg>